<svg width="488" height="193" viewBox="0 0 488 193" fill="none" xmlns="http://www.w3.org/2000/svg">
<path d="M86.4248 190V149H0.924805V120.5L84.4248 3.74998H119.925V120.5H147.175V149H119.925V190H86.4248ZM25.9248 132.75L19.9248 120.5H86.4248V30.5L95.1748 33.25L25.9248 132.75ZM427.001 190V149H341.501V120.5L425.001 3.74998H460.501V120.5H487.751V149H460.501V190H427.001ZM366.501 132.75L360.501 120.5H427.001V30.5L435.751 33.25L366.501 132.75Z" fill="black" fill-opacity="0.8"/>
<path d="M243.999 193C229.166 193 216.166 189 204.999 181C193.832 173 185.082 161.75 178.749 147.25C172.582 132.75 169.499 115.917 169.499 96.75C169.499 77.4167 172.582 60.5833 178.749 46.25C184.916 31.9167 193.582 20.75 204.749 12.75C215.916 4.74999 228.916 0.749993 243.749 0.749993C258.916 0.749993 271.999 4.74999 282.999 12.75C294.166 20.75 302.916 32 309.249 46.5C315.582 60.8333 318.749 77.5833 318.749 96.75C318.749 115.917 315.582 132.75 309.249 147.25C303.082 161.583 294.416 172.833 283.249 181C272.082 189 258.999 193 243.999 193ZM244.249 162C252.749 162 259.999 159.417 265.999 154.25C271.999 148.917 276.582 141.417 279.749 131.75C283.082 121.917 284.749 110.25 284.749 96.75C284.749 83.25 283.082 71.6667 279.749 62C276.582 52.1667 271.916 44.6667 265.749 39.5C259.749 34.3333 252.416 31.75 243.749 31.75C235.416 31.75 228.249 34.3333 222.249 39.5C216.249 44.6667 211.582 52.1667 208.249 62C205.082 71.6667 203.499 83.25 203.499 96.75C203.499 110.083 205.082 121.667 208.249 131.5C211.582 141.167 216.249 148.667 222.249 154C228.416 159.333 235.749 162 244.249 162Z" fill="#EAB047"/>
</svg>
