<svg width="176" height="24" viewBox="0 0 176 24" fill="none" xmlns="http://www.w3.org/2000/svg">
<rect x="-0.00012207" y="0.0545654" width="30.9296" height="3.99091" rx="1.99546" fill="#F09204"/>
<rect x="4.98853" y="10.0317" width="20.9523" height="3.99091" rx="1.99546" fill="#F09204"/>
<rect x="10.9749" y="20.009" width="8.97955" height="3.99091" rx="1.99546" fill="#F09204"/>
<path d="M150.205 24C148.493 24 146.995 23.6128 145.711 22.8383C144.427 22.0638 143.428 21.0143 142.715 19.6895C142.001 18.3648 141.645 16.8974 141.645 15.2874C141.645 13.6162 142.001 12.1386 142.715 10.8546C143.448 9.55027 144.437 8.52105 145.68 7.76698C146.944 7.0129 148.35 6.63586 149.899 6.63586C151.203 6.63586 152.344 6.84986 153.323 7.27785C154.321 7.70584 155.167 8.29687 155.86 9.05095C156.553 9.80502 157.083 10.6712 157.45 11.6495C157.817 12.6073 158 13.6467 158 14.7677C158 15.053 157.98 15.3485 157.939 15.6542C157.919 15.9599 157.868 16.2249 157.786 16.449H144.946V13.392H155.524L153.628 14.8288C153.812 13.8913 153.761 13.0557 153.476 12.322C153.211 11.5883 152.762 11.0075 152.131 10.5795C151.519 10.1515 150.775 9.93749 149.899 9.93749C149.063 9.93749 148.319 10.1515 147.667 10.5795C147.015 10.9871 146.516 11.5985 146.169 12.4137C145.843 13.2086 145.721 14.1766 145.802 15.3179C145.721 16.3369 145.853 17.2439 146.2 18.0387C146.567 18.8132 147.097 19.4144 147.789 19.8424C148.503 20.2704 149.318 20.4844 150.235 20.4844C151.152 20.4844 151.927 20.2907 152.558 19.9035C153.211 19.5163 153.72 18.9966 154.087 18.3444L157.328 19.9341C157.001 20.7289 156.492 21.4321 155.799 22.0435C155.106 22.6549 154.281 23.1338 153.323 23.4803C152.385 23.8268 151.346 24 150.205 24Z" fill="white"/>
<path d="M132.942 24C131.169 24 129.62 23.5822 128.295 22.7466C126.991 21.8906 126.094 20.7391 125.605 19.2921L128.601 17.8553C129.029 18.7928 129.62 19.5265 130.374 20.0564C131.149 20.5863 132.005 20.8512 132.942 20.8512C133.676 20.8512 134.257 20.6882 134.685 20.3621C135.113 20.036 135.327 19.608 135.327 19.0781C135.327 18.752 135.235 18.4871 135.051 18.2833C134.888 18.0591 134.654 17.8757 134.348 17.733C134.063 17.57 133.747 17.4375 133.401 17.3356L130.68 16.5713C129.274 16.1637 128.204 15.5421 127.47 14.7065C126.757 13.8709 126.4 12.8825 126.4 11.7412C126.4 10.7221 126.655 9.83559 127.164 9.08152C127.694 8.30706 128.418 7.70584 129.335 7.27785C130.272 6.84986 131.342 6.63586 132.545 6.63586C134.114 6.63586 135.5 7.0129 136.702 7.76698C137.905 8.52105 138.761 9.58084 139.27 10.9463L136.213 12.3831C135.928 11.6291 135.449 11.0278 134.776 10.5795C134.104 10.1311 133.35 9.90692 132.514 9.90692C131.842 9.90692 131.312 10.0598 130.924 10.3655C130.537 10.6712 130.344 11.0686 130.344 11.5577C130.344 11.8634 130.425 12.1284 130.588 12.3526C130.751 12.5768 130.975 12.7602 131.261 12.9028C131.566 13.0455 131.913 13.178 132.3 13.3003L134.96 14.0951C136.325 14.5027 137.375 15.1141 138.108 15.9293C138.863 16.7446 139.24 17.7432 139.24 18.9253C139.24 19.9239 138.975 20.8105 138.445 21.5849C137.915 22.339 137.181 22.93 136.244 23.358C135.306 23.786 134.206 24 132.942 24Z" fill="white"/>
<path d="M115.18 23.6349V7.00447H118.94V10.7035L118.634 10.1532C119.021 8.91004 119.623 8.04387 120.438 7.55474C121.273 7.06561 122.272 6.82104 123.434 6.82104H124.412V10.3672H122.975C121.834 10.3672 120.917 10.7239 120.224 11.4372C119.531 12.1301 119.184 13.1084 119.184 14.372V23.6349H115.18Z" fill="white"/>
<path d="M104.348 24C102.636 24 101.138 23.6128 99.8542 22.8383C98.5703 22.0638 97.5716 21.0143 96.8583 19.6895C96.145 18.3648 95.7883 16.8974 95.7883 15.2874C95.7883 13.6162 96.145 12.1386 96.8583 10.8546C97.592 9.55027 98.5805 8.52105 99.8237 7.76698C101.087 7.0129 102.493 6.63586 104.042 6.63586C105.347 6.63586 106.488 6.84986 107.466 7.27785C108.465 7.70584 109.311 8.29687 110.004 9.05095C110.697 9.80502 111.227 10.6712 111.593 11.6495C111.96 12.6073 112.144 13.6467 112.144 14.7677C112.144 15.053 112.123 15.3485 112.082 15.6542C112.062 15.9599 112.011 16.2249 111.93 16.449H99.09V13.392H109.667L107.772 14.8288C107.955 13.8913 107.904 13.0557 107.619 12.322C107.354 11.5883 106.906 11.0075 106.274 10.5795C105.663 10.1515 104.919 9.93749 104.042 9.93749C103.207 9.93749 102.463 10.1515 101.811 10.5795C101.159 10.9871 100.659 11.5985 100.313 12.4137C99.9867 13.2086 99.8644 14.1766 99.9459 15.3179C99.8644 16.3369 99.9969 17.2439 100.343 18.0387C100.71 18.8132 101.24 19.4144 101.933 19.8424C102.646 20.2704 103.462 20.4844 104.379 20.4844C105.296 20.4844 106.07 20.2907 106.702 19.9035C107.354 19.5163 107.864 18.9966 108.231 18.3444L111.471 19.9341C111.145 20.7289 110.635 21.4321 109.943 22.0435C109.25 22.6549 108.424 23.1338 107.466 23.4803C106.529 23.8268 105.489 24 104.348 24Z" fill="white"/>
<path d="M84.458 23.6346L77.9159 7.00415H82.2875L87.0259 20.0884H85.4057L90.1747 7.00415H94.5463L88.0042 23.6346H84.458Z" fill="white"/>
<path d="M71.7424 23.6351V7.00468H75.7472V23.6351H71.7424ZM71.7424 5.13988V0.859985H75.7472V5.13988H71.7424Z" fill="white"/>
<path d="M60.3075 23.6349V7.00447H64.0677V10.7035L63.762 10.1532C64.1492 8.91004 64.7504 8.04387 65.5656 7.55474C66.4012 7.06561 67.3999 6.82104 68.5616 6.82104H69.5398V10.3672H68.103C66.9617 10.3672 66.0446 10.7239 65.3517 11.4372C64.6587 12.1301 64.3122 13.1084 64.3122 14.372V23.6349H60.3075Z" fill="white"/>
<path d="M49.9313 23.6351V4.52846H44.0311V0.859985H59.9279V4.52846H54.1194V23.6351H49.9313Z" fill="white"/>
<path d="M167.432 19V13.568H162V10.404H167.432V5H170.596V10.404H176V13.568H170.596V19H167.432Z" fill="white"/>
</svg>
