<svg width="158" height="24" viewBox="0 0 158 24" fill="none" xmlns="http://www.w3.org/2000/svg">
<rect y="0.0544434" width="30.9296" height="3.99091" rx="1.99546" fill="#F09204"/>
<rect x="4.98877" y="10.0317" width="20.9523" height="3.99091" rx="1.99546" fill="#F09204"/>
<rect x="10.9751" y="20.009" width="8.97955" height="3.99091" rx="1.99546" fill="#F09204"/>
<path d="M150.205 23.9999C148.493 23.9999 146.995 23.6126 145.711 22.8382C144.427 22.0637 143.428 21.0141 142.715 19.6894C142.002 18.3647 141.645 16.8973 141.645 15.2872C141.645 13.616 142.002 12.1385 142.715 10.8545C143.449 9.55014 144.437 8.52093 145.68 7.76686C146.944 7.01278 148.35 6.63574 149.899 6.63574C151.203 6.63574 152.345 6.84974 153.323 7.27773C154.322 7.70572 155.167 8.29675 155.86 9.05082C156.553 9.8049 157.083 10.6711 157.45 11.6493C157.817 12.6072 158 13.6466 158 14.7675C158 15.0529 157.98 15.3484 157.939 15.6541C157.919 15.9598 157.868 16.2247 157.786 16.4489H144.947V13.3919H155.524L153.629 14.8287C153.812 13.8912 153.761 13.0556 153.476 12.3219C153.211 11.5882 152.763 11.0073 152.131 10.5794C151.519 10.1514 150.775 9.93737 149.899 9.93737C149.063 9.93737 148.32 10.1514 147.667 10.5794C147.015 10.987 146.516 11.5984 146.169 12.4136C145.843 13.2084 145.721 14.1765 145.803 15.3178C145.721 16.3368 145.854 17.2438 146.2 18.0386C146.567 18.813 147.097 19.4143 147.79 19.8423C148.503 20.2702 149.318 20.4842 150.235 20.4842C151.152 20.4842 151.927 20.2906 152.559 19.9034C153.211 19.5162 153.72 18.9965 154.087 18.3443L157.328 19.934C157.002 20.7288 156.492 21.4319 155.799 22.0433C155.106 22.6548 154.281 23.1337 153.323 23.4802C152.386 23.8266 151.346 23.9999 150.205 23.9999Z" fill="black"/>
<path d="M132.942 23.9999C131.169 23.9999 129.62 23.5821 128.296 22.7465C126.991 21.8905 126.095 20.739 125.605 19.292L128.601 17.8552C129.029 18.7927 129.62 19.5264 130.374 20.0563C131.149 20.5861 132.005 20.8511 132.942 20.8511C133.676 20.8511 134.257 20.688 134.685 20.362C135.113 20.0359 135.327 19.6079 135.327 19.078C135.327 18.7519 135.235 18.487 135.052 18.2832C134.889 18.059 134.654 17.8755 134.349 17.7329C134.063 17.5698 133.747 17.4374 133.401 17.3355L130.68 16.5712C129.274 16.1636 128.204 15.542 127.47 14.7064C126.757 13.8708 126.4 12.8823 126.4 11.741C126.4 10.722 126.655 9.83547 127.165 9.08139C127.694 8.30694 128.418 7.70572 129.335 7.27773C130.273 6.84974 131.343 6.63574 132.545 6.63574C134.114 6.63574 135.5 7.01278 136.703 7.76686C137.905 8.52093 138.761 9.58071 139.271 10.9462L136.213 12.383C135.928 11.6289 135.449 11.0277 134.777 10.5794C134.104 10.131 133.35 9.9068 132.514 9.9068C131.842 9.9068 131.312 10.0597 130.925 10.3654C130.538 10.6711 130.344 11.0685 130.344 11.5576C130.344 11.8633 130.425 12.1283 130.588 12.3525C130.752 12.5766 130.976 12.7601 131.261 12.9027C131.567 13.0454 131.913 13.1779 132.3 13.3001L134.96 14.095C136.326 14.5026 137.375 15.114 138.109 15.9292C138.863 16.7444 139.24 17.7431 139.24 18.9251C139.24 19.9238 138.975 20.8103 138.445 21.5848C137.915 22.3389 137.182 22.9299 136.244 23.3579C135.307 23.7859 134.206 23.9999 132.942 23.9999Z" fill="black"/>
<path d="M115.18 23.6347V7.00422H118.94V10.7033L118.634 10.153C119.021 8.9098 119.623 8.04363 120.438 7.5545C121.273 7.06537 122.272 6.8208 123.434 6.8208H124.412V10.367H122.975C121.834 10.367 120.917 10.7237 120.224 11.437C119.531 12.1299 119.184 13.1082 119.184 14.3717V23.6347H115.18Z" fill="black"/>
<path d="M104.348 23.9999C102.636 23.9999 101.138 23.6126 99.8545 22.8382C98.5705 22.0637 97.5719 21.0141 96.8585 19.6894C96.1452 18.3647 95.7886 16.8973 95.7886 15.2872C95.7886 13.616 96.1452 12.1385 96.8585 10.8545C97.5922 9.55014 98.5807 8.52093 99.8239 7.76686C101.087 7.01278 102.494 6.63574 104.043 6.63574C105.347 6.63574 106.488 6.84974 107.467 7.27773C108.465 7.70572 109.311 8.29675 110.004 9.05082C110.697 9.8049 111.227 10.6711 111.594 11.6493C111.96 12.6072 112.144 13.6466 112.144 14.7675C112.144 15.0529 112.123 15.3484 112.083 15.6541C112.062 15.9598 112.011 16.2247 111.93 16.4489H99.0902V13.3919H109.668L107.772 14.8287C107.956 13.8912 107.905 13.0556 107.619 12.3219C107.354 11.5882 106.906 11.0073 106.274 10.5794C105.663 10.1514 104.919 9.93737 104.043 9.93737C103.207 9.93737 102.463 10.1514 101.811 10.5794C101.159 10.987 100.659 11.5984 100.313 12.4136C99.9869 13.2084 99.8647 14.1765 99.9462 15.3178C99.8647 16.3368 99.9971 17.2438 100.344 18.0386C100.71 18.813 101.24 19.4143 101.933 19.8423C102.647 20.2702 103.462 20.4842 104.379 20.4842C105.296 20.4842 106.071 20.2906 106.702 19.9034C107.354 19.5162 107.864 18.9965 108.231 18.3443L111.471 19.934C111.145 20.7288 110.636 21.4319 109.943 22.0433C109.25 22.6548 108.424 23.1337 107.467 23.4802C106.529 23.8266 105.49 23.9999 104.348 23.9999Z" fill="black"/>
<path d="M84.4581 23.6346L77.916 7.00415H82.2876L87.0261 20.0884H85.4058L90.1748 7.00415H94.5464L88.0043 23.6346H84.4581Z" fill="black"/>
<path d="M71.7427 23.635V7.00456H75.7474V23.635H71.7427ZM71.7427 5.13975V0.859863H75.7474V5.13975H71.7427Z" fill="black"/>
<path d="M60.3076 23.6347V7.00422H64.0678V10.7033L63.7621 10.153C64.1493 8.9098 64.7505 8.04363 65.5658 7.5545C66.4014 7.06537 67.4 6.8208 68.5617 6.8208H69.5399V10.367H68.1031C66.9618 10.367 66.0447 10.7237 65.3518 11.437C64.6588 12.1299 64.3124 13.1082 64.3124 14.3717V23.6347H60.3076Z" fill="black"/>
<path d="M49.9314 23.635V4.52834H44.0312V0.859863H59.928V4.52834H54.1196V23.635H49.9314Z" fill="black"/>
</svg>
