<svg width="46" height="32" viewBox="0 0 46 32" fill="none" xmlns="http://www.w3.org/2000/svg">
<path d="M8.89997 20.8595C7.91 23.3494 6.35003 25.8094 4.26502 28.1795C3.60502 28.9295 3.51501 30.0094 4.055 30.8494C4.47504 31.5094 5.16499 31.8694 5.91499 31.8694C6.125 31.8694 6.33503 31.8545 6.54504 31.7794C10.955 30.4894 21.26 25.9145 21.545 11.2444C21.65 5.58947 17.51 0.72949 12.125 0.17449C9.14002 -0.125525 6.17004 0.849416 3.965 2.82943C1.76004 4.82446 0.5 7.67449 0.5 10.6445C0.5 15.5944 4.01004 19.9295 8.89997 20.8595Z" fill="#EAB047"/>
<path d="M36.065 0.17449C33.095 -0.125525 30.125 0.849416 27.92 2.82943C25.715 4.82446 24.455 7.67449 24.455 10.6445C24.455 15.5944 27.965 19.9295 32.855 20.8595C31.865 23.3494 30.305 25.8094 28.22 28.1795C27.56 28.9295 27.47 30.0094 28.01 30.8494C28.43 31.5094 29.12 31.8694 29.87 31.8694C30.08 31.8694 30.29 31.8545 30.5 31.7794C34.91 30.4894 45.215 25.9144 45.5 11.2444V11.0345C45.5 5.46944 41.405 0.72949 36.065 0.17449Z" fill="#EAB047"/>
</svg>
